<svg xmlns="http://www.w3.org/2000/svg" xmlns:xlink="http://www.w3.org/1999/xlink" width="200" zoomAndPan="magnify" viewBox="0 0 150 149.999998" height="200" preserveAspectRatio="xMidYMid meet" version="1.0"><defs><g/><clipPath id="65f8316a2e"><path d="M 79 26.097656 L 103 26.097656 L 103 48 L 79 48 Z M 79 26.097656 " clip-rule="nonzero"/></clipPath><clipPath id="9c8bbe7caa"><path d="M 79 26.097656 L 104 26.097656 L 104 49 L 79 49 Z M 79 26.097656 " clip-rule="nonzero"/></clipPath><clipPath id="d8ff777b15"><path d="M 79 46 L 102 46 L 102 105.597656 L 79 105.597656 Z M 79 46 " clip-rule="nonzero"/></clipPath><clipPath id="82b5a22d0e"><path d="M 79 46 L 103 46 L 103 105.597656 L 79 105.597656 Z M 79 46 " clip-rule="nonzero"/></clipPath><clipPath id="4d285f14c7"><path d="M 80 26.097656 L 103 26.097656 L 103 47 L 80 47 Z M 80 26.097656 " clip-rule="nonzero"/></clipPath><clipPath id="127197a1e2"><path d="M 80 26.097656 L 104 26.097656 L 104 48 L 80 48 Z M 80 26.097656 " clip-rule="nonzero"/></clipPath><clipPath id="656a59ad56"><path d="M 84 33 L 147 33 L 147 105.597656 L 84 105.597656 Z M 84 33 " clip-rule="nonzero"/></clipPath><clipPath id="3f459bee91"><path d="M 83 32 L 147.21875 32 L 147.21875 105.597656 L 83 105.597656 Z M 83 32 " clip-rule="nonzero"/></clipPath></defs><g clip-path="url(#65f8316a2e)"><path fill="#ffce46" d="M 79.472656 46.402344 C 84.808594 40.453125 96.433594 26.675781 96.050781 26.542969 C 95.703125 26.421875 101.132812 35.546875 102.96875 40.46875 L 83.75 47.605469 L 79.472656 46.402344 " fill-opacity="1" fill-rule="nonzero"/></g><g clip-path="url(#9c8bbe7caa)"><path fill="#22183b" d="M 83.75 48.019531 C 83.710938 48.019531 83.675781 48.011719 83.636719 48.003906 L 79.359375 46.800781 C 79.222656 46.761719 79.113281 46.65625 79.074219 46.519531 C 79.03125 46.378906 79.066406 46.234375 79.164062 46.125 C 84.210938 40.5 94.6875 28.082031 95.613281 26.546875 C 95.601562 26.421875 95.652344 26.363281 95.722656 26.277344 C 95.835938 26.148438 96.027344 26.097656 96.1875 26.152344 C 96.320312 26.199219 96.425781 26.316406 96.460938 26.449219 C 96.46875 26.484375 96.480469 26.519531 96.472656 26.570312 C 96.628906 26.933594 97.253906 28.082031 97.910156 29.292969 C 99.613281 32.4375 102.1875 37.183594 103.355469 40.324219 C 103.394531 40.425781 103.390625 40.542969 103.34375 40.640625 C 103.296875 40.742188 103.214844 40.820312 103.113281 40.855469 L 83.894531 47.992188 C 83.847656 48.011719 83.796875 48.019531 83.75 48.019531 Z M 80.222656 46.183594 L 83.730469 47.171875 L 102.429688 40.226562 C 101.222656 37.144531 98.804688 32.679688 97.179688 29.6875 C 96.605469 28.625 96.222656 27.921875 95.980469 27.449219 C 95.304688 28.40625 93.722656 30.390625 90.105469 34.699219 C 86.660156 38.804688 82.769531 43.324219 80.222656 46.183594 Z M 80.222656 46.183594 " fill-opacity="1" fill-rule="nonzero"/></g><g clip-path="url(#d8ff777b15)"><path fill="#ffce46" d="M 101.699219 105.183594 L 97.144531 103.476562 L 79.472656 46.476562 L 84.214844 47.882812 " fill-opacity="1" fill-rule="nonzero"/></g><g clip-path="url(#82b5a22d0e)"><path fill="#22183b" d="M 101.699219 105.597656 C 101.652344 105.597656 101.601562 105.589844 101.554688 105.570312 L 96.996094 103.863281 C 96.878906 103.820312 96.785156 103.71875 96.746094 103.597656 L 79.078125 46.597656 C 79.03125 46.453125 79.070312 46.292969 79.179688 46.183594 C 79.285156 46.078125 79.445312 46.035156 79.589844 46.078125 L 84.332031 47.488281 C 84.550781 47.554688 84.675781 47.785156 84.613281 48.003906 C 84.546875 48.222656 84.316406 48.347656 84.097656 48.28125 L 80.097656 47.09375 L 97.480469 103.160156 L 101.847656 104.796875 C 102.058594 104.875 102.167969 105.113281 102.089844 105.328125 C 102.027344 105.496094 101.867188 105.597656 101.699219 105.597656 Z M 101.699219 105.597656 " fill-opacity="1" fill-rule="nonzero"/></g><g clip-path="url(#4d285f14c7)"><path fill="#f5eaf9" d="M 80.738281 46.851562 C 87.125 40.59375 94.984375 30.335938 96.050781 26.539062 C 97.570312 28.78125 101.960938 37.621094 102.789062 40.007812 " fill-opacity="1" fill-rule="nonzero"/></g><g clip-path="url(#127197a1e2)"><path fill="#22183b" d="M 80.738281 47.265625 C 80.628906 47.265625 80.523438 47.222656 80.441406 47.140625 C 80.28125 46.976562 80.285156 46.714844 80.449219 46.554688 C 86.972656 40.167969 94.644531 30.007812 95.652344 26.425781 C 95.695312 26.269531 95.824219 26.15625 95.984375 26.128906 C 96.144531 26.105469 96.304688 26.171875 96.394531 26.304688 C 97.980469 28.648438 102.378906 37.558594 103.179688 39.871094 C 103.257812 40.085938 103.140625 40.320312 102.925781 40.398438 C 102.710938 40.472656 102.472656 40.359375 102.398438 40.140625 C 101.671875 38.050781 97.96875 30.496094 96.152344 27.472656 C 94.484375 31.429688 87.882812 40.433594 81.027344 47.148438 C 80.945312 47.226562 80.84375 47.265625 80.738281 47.265625 Z M 80.738281 47.265625 " fill-opacity="1" fill-rule="nonzero"/></g><g clip-path="url(#656a59ad56)"><path fill="#ffce46" d="M 84.214844 47.882812 C 98.308594 42.269531 114.972656 37.597656 129.4375 33.011719 C 130.957031 39.292969 146.839844 90.640625 146.671875 91.128906 C 146.398438 91.921875 101.9375 105.277344 101.699219 105.183594 C 101.476562 105.09375 90.0625 65.589844 84.214844 47.882812 Z M 84.214844 47.882812 " fill-opacity="1" fill-rule="nonzero"/></g><g clip-path="url(#3f459bee91)"><path fill="#22183b" d="M 101.660156 105.589844 C 101.605469 105.589844 101.578125 105.578125 101.550781 105.566406 C 101.304688 105.472656 101.304688 105.472656 100.144531 101.613281 C 99.445312 99.300781 98.472656 96.027344 97.328125 92.183594 C 93.417969 79.042969 87.511719 59.179688 83.820312 48.015625 C 83.753906 47.804688 83.859375 47.582031 84.0625 47.5 C 94.601562 43.300781 106.484375 39.65625 117.976562 36.128906 C 121.921875 34.921875 125.648438 33.777344 129.3125 32.617188 C 129.421875 32.582031 129.539062 32.59375 129.640625 32.652344 C 129.742188 32.707031 129.8125 32.800781 129.839844 32.914062 C 130.632812 36.1875 135.425781 52.027344 139.652344 66 C 146.886719 89.914062 147.160156 90.976562 147.0625 91.261719 C 147 91.449219 146.839844 91.550781 146.554688 91.683594 C 144.328125 92.710938 130.71875 96.921875 122.804688 99.339844 C 117.847656 100.855469 112.582031 102.441406 108.355469 103.699219 C 102.863281 105.332031 101.925781 105.589844 101.660156 105.589844 Z M 84.730469 48.125 C 88.429688 59.367188 94.253906 78.945312 98.121094 91.949219 C 100.003906 98.277344 101.535156 103.414062 101.960938 104.699219 C 103.804688 104.203125 113.273438 101.394531 123.902344 98.140625 C 136.628906 94.238281 144.839844 91.585938 146.214844 90.929688 C 145.78125 89.121094 142.265625 77.5 138.859375 66.242188 C 134.789062 52.789062 130.195312 37.609375 129.144531 33.539062 C 125.613281 34.65625 122.019531 35.757812 118.222656 36.921875 C 106.875 40.402344 95.148438 44 84.730469 48.125 Z M 146.382812 90.839844 Z M 146.382812 90.839844 " fill-opacity="1" fill-rule="nonzero"/></g><path fill="#f5eaf9" d="M 127.929688 33.488281 C 112.015625 38.160156 97.140625 42.929688 84.214844 47.882812 L 81.8125 47.054688 C 90.28125 41.777344 118.785156 33.234375 127.929688 33.488281 Z M 127.929688 33.488281 " fill-opacity="1" fill-rule="nonzero"/><path fill="#22183b" d="M 84.214844 48.296875 C 84.167969 48.296875 84.121094 48.289062 84.078125 48.277344 L 81.679688 47.445312 C 81.527344 47.394531 81.421875 47.257812 81.402344 47.101562 C 81.382812 46.941406 81.460938 46.789062 81.59375 46.703125 C 90.371094 41.230469 118.949219 32.816406 127.941406 33.074219 C 128.144531 33.078125 128.3125 33.234375 128.339844 33.433594 C 128.363281 33.636719 128.242188 33.828125 128.046875 33.882812 C 110.363281 39.078125 96.074219 43.78125 84.363281 48.269531 C 84.316406 48.289062 84.265625 48.296875 84.214844 48.296875 Z M 82.789062 46.953125 L 84.207031 47.445312 C 95.136719 43.261719 108.300781 38.890625 124.351562 34.113281 C 113.414062 35.402344 91.195312 42.144531 82.789062 46.953125 Z M 82.789062 46.953125 " fill-opacity="1" fill-rule="nonzero"/><path fill="#f5eaf9" d="M 128.96875 61.417969 L 99.992188 70.589844 L 95.03125 53.75 L 124.003906 44.578125 Z M 128.96875 61.417969 " fill-opacity="1" fill-rule="nonzero"/><path fill="#22183b" d="M 99.992188 71.003906 C 99.925781 71.003906 99.859375 70.984375 99.800781 70.953125 C 99.703125 70.902344 99.628906 70.8125 99.597656 70.707031 L 94.632812 53.867188 C 94.570312 53.652344 94.691406 53.425781 94.90625 53.355469 L 123.878906 44.183594 C 123.984375 44.152344 124.101562 44.164062 124.199219 44.214844 C 124.296875 44.265625 124.371094 44.355469 124.402344 44.460938 L 129.363281 61.300781 C 129.429688 61.515625 129.308594 61.746094 129.09375 61.8125 L 100.117188 70.984375 C 100.078125 70.996094 100.035156 71.003906 99.992188 71.003906 Z M 95.542969 54.023438 L 100.273438 70.066406 L 128.457031 61.144531 L 123.726562 45.101562 Z M 95.542969 54.023438 " fill-opacity="1" fill-rule="nonzero"/><g fill="#000000" fill-opacity="0.302"><g transform="translate(11.365538, 106.19606)"><g><path d="M 49.15625 -67.25 C 49.757812 -68.363281 50.664062 -69.113281 51.875 -69.5 C 53.09375 -69.882812 54.609375 -70.078125 56.421875 -70.078125 C 58.242188 -70.078125 59.710938 -69.914062 60.828125 -69.59375 C 61.953125 -69.28125 62.785156 -68.898438 63.328125 -68.453125 C 63.867188 -68.003906 64.269531 -67.332031 64.53125 -66.4375 C 64.90625 -65.414062 65.09375 -63.789062 65.09375 -61.5625 L 65.09375 -8.421875 C 65.09375 -6.890625 65.046875 -5.769531 64.953125 -5.0625 C 64.859375 -4.363281 64.554688 -3.535156 64.046875 -2.578125 C 63.148438 -0.859375 60.660156 0 56.578125 0 C 54.085938 0 52.363281 -0.191406 51.40625 -0.578125 C 50.445312 -0.960938 49.648438 -1.566406 49.015625 -2.390625 C 34.648438 -21.535156 25.203125 -34.046875 20.671875 -39.921875 L 20.671875 -8.421875 C 20.671875 -6.890625 20.625 -5.769531 20.53125 -5.0625 C 20.4375 -4.363281 20.132812 -3.535156 19.625 -2.578125 C 18.726562 -0.859375 16.238281 0 12.15625 0 C 8.195312 0 5.769531 -0.859375 4.875 -2.578125 C 4.363281 -3.535156 4.0625 -4.394531 3.96875 -5.15625 C 3.875 -5.925781 3.828125 -7.046875 3.828125 -8.515625 L 3.828125 -61.9375 C 3.828125 -64.363281 4.128906 -66.132812 4.734375 -67.25 C 5.335938 -68.363281 6.242188 -69.113281 7.453125 -69.5 C 8.671875 -69.882812 10.238281 -70.078125 12.15625 -70.078125 C 14.070312 -70.078125 15.585938 -69.898438 16.703125 -69.546875 C 17.816406 -69.203125 18.597656 -68.804688 19.046875 -68.359375 C 19.304688 -68.160156 20.039062 -67.328125 21.25 -65.859375 C 34.71875 -47.546875 43.71875 -35.453125 48.25 -29.578125 L 48.25 -61.9375 C 48.25 -64.363281 48.550781 -66.132812 49.15625 -67.25 Z M 49.15625 -67.25 "/></g></g></g><g fill="#000000" fill-opacity="0.502"><g transform="translate(7.134382, 101.964905)"><g><path d="M 49.15625 -67.25 C 49.757812 -68.363281 50.664062 -69.113281 51.875 -69.5 C 53.09375 -69.882812 54.609375 -70.078125 56.421875 -70.078125 C 58.242188 -70.078125 59.710938 -69.914062 60.828125 -69.59375 C 61.953125 -69.28125 62.785156 -68.898438 63.328125 -68.453125 C 63.867188 -68.003906 64.269531 -67.332031 64.53125 -66.4375 C 64.90625 -65.414062 65.09375 -63.789062 65.09375 -61.5625 L 65.09375 -8.421875 C 65.09375 -6.890625 65.046875 -5.769531 64.953125 -5.0625 C 64.859375 -4.363281 64.554688 -3.535156 64.046875 -2.578125 C 63.148438 -0.859375 60.660156 0 56.578125 0 C 54.085938 0 52.363281 -0.191406 51.40625 -0.578125 C 50.445312 -0.960938 49.648438 -1.566406 49.015625 -2.390625 C 34.648438 -21.535156 25.203125 -34.046875 20.671875 -39.921875 L 20.671875 -8.421875 C 20.671875 -6.890625 20.625 -5.769531 20.53125 -5.0625 C 20.4375 -4.363281 20.132812 -3.535156 19.625 -2.578125 C 18.726562 -0.859375 16.238281 0 12.15625 0 C 8.195312 0 5.769531 -0.859375 4.875 -2.578125 C 4.363281 -3.535156 4.0625 -4.394531 3.96875 -5.15625 C 3.875 -5.925781 3.828125 -7.046875 3.828125 -8.515625 L 3.828125 -61.9375 C 3.828125 -64.363281 4.128906 -66.132812 4.734375 -67.25 C 5.335938 -68.363281 6.242188 -69.113281 7.453125 -69.5 C 8.671875 -69.882812 10.238281 -70.078125 12.15625 -70.078125 C 14.070312 -70.078125 15.585938 -69.898438 16.703125 -69.546875 C 17.816406 -69.203125 18.597656 -68.804688 19.046875 -68.359375 C 19.304688 -68.160156 20.039062 -67.328125 21.25 -65.859375 C 34.71875 -47.546875 43.71875 -35.453125 48.25 -29.578125 L 48.25 -61.9375 C 48.25 -64.363281 48.550781 -66.132812 49.15625 -67.25 Z M 49.15625 -67.25 "/></g></g></g><g fill="#ffce46" fill-opacity="1"><g transform="translate(2.903227, 97.733749)"><g><path d="M 49.15625 -67.25 C 49.757812 -68.363281 50.664062 -69.113281 51.875 -69.5 C 53.09375 -69.882812 54.609375 -70.078125 56.421875 -70.078125 C 58.242188 -70.078125 59.710938 -69.914062 60.828125 -69.59375 C 61.953125 -69.28125 62.785156 -68.898438 63.328125 -68.453125 C 63.867188 -68.003906 64.269531 -67.332031 64.53125 -66.4375 C 64.90625 -65.414062 65.09375 -63.789062 65.09375 -61.5625 L 65.09375 -8.421875 C 65.09375 -6.890625 65.046875 -5.769531 64.953125 -5.0625 C 64.859375 -4.363281 64.554688 -3.535156 64.046875 -2.578125 C 63.148438 -0.859375 60.660156 0 56.578125 0 C 54.085938 0 52.363281 -0.191406 51.40625 -0.578125 C 50.445312 -0.960938 49.648438 -1.566406 49.015625 -2.390625 C 34.648438 -21.535156 25.203125 -34.046875 20.671875 -39.921875 L 20.671875 -8.421875 C 20.671875 -6.890625 20.625 -5.769531 20.53125 -5.0625 C 20.4375 -4.363281 20.132812 -3.535156 19.625 -2.578125 C 18.726562 -0.859375 16.238281 0 12.15625 0 C 8.195312 0 5.769531 -0.859375 4.875 -2.578125 C 4.363281 -3.535156 4.0625 -4.394531 3.96875 -5.15625 C 3.875 -5.925781 3.828125 -7.046875 3.828125 -8.515625 L 3.828125 -61.9375 C 3.828125 -64.363281 4.128906 -66.132812 4.734375 -67.25 C 5.335938 -68.363281 6.242188 -69.113281 7.453125 -69.5 C 8.671875 -69.882812 10.238281 -70.078125 12.15625 -70.078125 C 14.070312 -70.078125 15.585938 -69.898438 16.703125 -69.546875 C 17.816406 -69.203125 18.597656 -68.804688 19.046875 -68.359375 C 19.304688 -68.160156 20.039062 -67.328125 21.25 -65.859375 C 34.71875 -47.546875 43.71875 -35.453125 48.25 -29.578125 L 48.25 -61.9375 C 48.25 -64.363281 48.550781 -66.132812 49.15625 -67.25 Z M 49.15625 -67.25 "/></g></g></g></svg>